<svg width="1334" height="447" viewBox="0 0 1334 447" fill="none" xmlns="http://www.w3.org/2000/svg">
<path d="M387.195 151.306L321.754 56.7888L168.854 5L106.958 31.4267L104.518 18.8814L46.1268 93.0896L6.40625 213.163L46.1855 294.631L6.40625 285.919L113.233 372.015L166.414 391.104L169.958 398.732L260.42 392.188L308.41 369.576L359.907 326.247L405.999 229.271L387.195 151.306Z" fill="black"/>
<path d="M105.312 114.271L52.3047 176.649L107.016 212.137L105.312 114.271Z" fill="#A922B1"/>
<path d="M105.312 114.271L107.017 212.137L188.647 156.457L105.312 114.271Z" fill="#E515CD"/>
<path d="M105.312 114.27L182.663 108.694L188.647 156.456L105.312 114.27Z" fill="#FFF2DD"/>
<path d="M105.312 114.27L117.513 77.0781L182.663 108.694L105.312 114.27Z" fill="#FFB6D4"/>
<path d="M105.312 114.27L66.25 115.973L117.513 77.0781L105.312 114.27Z" fill="#F76ED0"/>
<path d="M225.735 114.27L202.631 195.119L225.735 176.649L259.065 111.347L225.735 114.27Z" fill="#240C61"/>
<path d="M271.75 265.649L202.631 195.119L217.93 201.856L271.75 265.649Z" fill="#FF58E2"/>
<path d="M225.735 176.649L217.93 201.857L202.631 195.119L225.735 176.649Z" fill="#59159C"/>
<path d="M225.734 176.649L217.93 201.857L249.826 239.668L225.734 176.649Z" fill="#FFD6CF"/>
<path d="M249.827 239.667L321.62 210.472L328.05 247.256L271.751 265.649L249.827 239.667Z" fill="#E41DC5"/>
<path d="M321.619 210.472L358.687 198.507L328.049 247.256L321.619 210.472Z" fill="#270D69"/>
<path d="M321.619 210.472L370.985 172.332L358.687 198.507L321.619 210.472Z" fill="#B419BA"/>
<path d="M259.063 111.347L321.618 210.472L225.733 176.649L259.063 111.347Z" fill="#F66CD4"/>
<path d="M225.733 176.649L249.826 239.668L321.618 210.472L225.733 176.649Z" fill="#F351D9"/>
<path d="M259.064 111.347L299.599 117.406L352.044 186.949L321.619 210.472L259.064 111.347Z" fill="#E221C6"/>
<path d="M259.064 111.348L301.555 106.256L299.599 117.407L259.064 111.348Z" fill="#DE2EFF"/>
<path d="M225.733 114.271L260.865 108.695L301.554 106.256L259.063 111.348L225.733 114.271Z" fill="#FDB9FF"/>
<path d="M301.555 106.256L370.985 172.333L352.044 186.95L299.6 117.407L301.555 106.256Z" fill="#26065D"/>
<path d="M335.815 77.0781L370.985 172.331L387.195 151.306L335.815 77.0781Z" fill="#FFF2DE"/>
<path d="M280.33 53.3428L301.556 106.255L370.985 172.332L280.33 53.3428Z" fill="#9117AF"/>
<path d="M280.33 53.3428L335.815 77.0789L370.985 172.332L280.33 53.3428Z" fill="#C91ABD"/>
<path d="M406 229.271L387.194 151.307L370.984 172.332L382.992 167.918L406 229.271Z" fill="#E35DCC"/>
<path d="M362.948 272.89L404.896 230.413L361.321 251.651" fill="#380C74"/>
<path d="M361.322 251.651L328.05 247.256L362.948 272.889" fill="#1C0540"/>
<path d="M370.985 172.332L361.321 251.652L358.688 210.472" fill="#B419BA"/>
<path d="M358.688 210.472L328.05 247.257L370.986 172.332" fill="#E215C6"/>
<path d="M361.321 251.651L366.783 206.91L379.255 192.873L404.896 230.413L361.321 251.651Z" fill="#280D67"/>
<path d="M344.355 249.406L358.687 210.472L361.321 251.651L344.355 249.406Z" fill="#280D67"/>
<path d="M370.984 172.332L382.992 167.918L379.254 192.873L370.984 172.332Z" fill="#500E83"/>
<path d="M271.75 277.905L326.383 258.796L362.947 272.891L344.355 302.628L297.662 332.113L249.826 345.666L222.984 347.002L271.75 277.905Z" fill="#6924BA"/>
<path d="M297.663 332.113L295.281 351.512L330.374 333.72L354.311 312.714L344.357 302.627L297.663 332.113Z" fill="#E215C6"/>
<path d="M362.948 272.89L344.355 302.627L354.31 312.714L362.948 272.89Z" fill="#8400A2"/>
<path d="M404.897 230.413L354.311 312.714L361.321 326.015L404.897 230.413Z" fill="#EF1FD4"/>
<path d="M222.984 347.001L257.341 355.868L295.28 351.512L297.662 332.113L253.758 342.161L222.984 347.001Z" fill="#5F0C88"/>
<path d="M121.522 244.119L155.937 233.433L182.663 317.012L121.522 244.119Z" fill="#2B0D60"/>
<path d="M121.522 244.12L115.46 270.47L182.662 317.012L121.522 244.12Z" fill="#4F158E"/>
<path d="M117.513 299.666L115.46 270.47L182.662 317.013L117.513 299.666Z" fill="#8F1DA9"/>
<path d="M155.938 233.434L190.08 231.053L207.724 276.84L161.36 250.413L155.938 233.434Z" fill="#8714A4"/>
<path d="M190.08 231.052L206.271 230.375L255.443 283.17L247.057 300.537L207.723 276.84L190.08 231.052Z" fill="#BC1AC4"/>
<path d="M155.938 233.434L202.63 220.133L206.271 230.375L155.938 233.434Z" fill="#770E97"/>
<path d="M202.631 220.133L256.625 272.89L255.444 283.17L206.271 230.375L202.631 220.133Z" fill="#9614AD"/>
<path d="M182.663 317.013L227.381 305.164L217.93 333.508L182.663 317.013Z" fill="#280C62"/>
<path d="M227.38 305.163L247.057 300.536L217.93 333.507L227.38 305.163Z" fill="#AF1DC3"/>
<path d="M161.359 250.413L182.662 317.013L247.057 300.537L161.359 250.413Z" fill="#1C0540"/>
<path d="M161.359 342.743L182.662 317.013L217.93 333.507L161.359 342.743Z" fill="#6618A3"/>
<path d="M117.514 299.646L161.36 342.742L182.663 317.012L117.514 299.646Z" fill="#C41CCB"/>
<path d="M109.767 233.433L197.169 200.23L107.017 230.413L50.4277 185.497L105.313 233.433" fill="#9700E7"/>
<path d="M105.313 233.433L100.665 306.344L109.767 233.433" fill="#311878"/>
<path d="M197.169 192.873L220.156 119.652L193.198 189.273" fill="#3B0C71"/>
<path d="M193.199 189.272L109.767 226.773L197.168 192.873" fill="#9D159C"/>
<path d="M204.219 209.33L266.173 272.29L222.985 342.742L268.981 272.89L314.105 257.266L268.128 270.47L204.219 209.33Z" fill="#4F158F"/>
<path d="M126.558 72.5098L220.157 111.831L253.332 106.255L143.968 72.5098H126.558Z" fill="#2F0C6B"/>
<path d="M126.558 72.51L188.647 54.9893L143.968 72.51H126.558Z" fill="#D830C7"/>
<path d="M188.646 54.9893L143.968 72.51L253.332 106.255L294.621 100.118L188.646 54.9893Z" fill="#BE21BB"/>
<path d="M280.329 53.3428L294.621 100.118L188.646 54.9888L280.329 53.3428Z" fill="#70119C"/>
<path d="M123.808 72.509L179.487 36.7695L130.354 57.6983L123.808 72.509Z" fill="#E721D4"/>
<path d="M119.605 72.5098L62.8994 113.651L72.1955 86.1785L119.605 72.5098Z" fill="#AC1DA4"/>
<path d="M66.25 78.3376L93.4405 63.7596L168.738 5.96875L107.017 32.7055L66.25 78.3376Z" fill="#F217CA"/>
<path d="M358.688 210.472L344.357 249.406L328.05 247.256L358.688 210.472Z" fill="black"/>
<path d="M8.12988 210.472L38.9809 182.555L54.3771 125.325L34.3135 182.322L8.12988 210.472Z" fill="#FF00FD"/>
<path d="M6.40625 213.163L34.3132 182.322L54.3774 125.325L6.40625 213.163Z" fill="#591797"/>
<path d="M62.8984 117.039L52.9053 130.669L6.40625 213.164L46.1268 93.0898L62.8984 117.039Z" fill="#FFF3DF"/>
<path d="M46.1279 93.0898L52.9064 130.669L62.8995 117.039L46.1279 93.0898Z" fill="#FFB6D4"/>
<path d="M46.1279 93.09L72.1956 86.1787L62.8995 113.651L46.1279 93.09Z" fill="black"/>
<path d="M121.347 68.4253L74.4795 83.0033L149.158 25.2705L93.9433 72.51L121.347 68.4253Z" fill="black"/>
<path d="M59.1807 84.5718L83.641 72.5098L67.857 84.5718H59.1807Z" fill="black"/>
<path d="M72.7769 314.999L117.514 328.686L91.7369 300.536L69.291 308.765L72.7769 314.999Z" fill="#360D75"/>
<path d="M168.739 5.96875L138.778 50.1295L179.487 36.7708L168.739 5.96875Z" fill="#4F2B82"/>
<path d="M179.487 36.7695L280.329 53.3422L188.647 54.9883L179.487 36.7695Z" fill="#5924A3"/>
<path d="M179.487 36.7695L123.808 72.509L188.647 54.9883L179.487 36.7695Z" fill="#430F80"/>
<path d="M168.738 5.96875L179.487 36.7708L280.329 53.3435L168.738 5.96875Z" fill="#43107E"/>
<path d="M177.144 7.41992L321.755 56.7887L280.329 53.3427L177.144 7.41992Z" fill="#FFF6E1"/>
<path d="M280.33 53.3428L326.617 57.2534L335.815 77.0788L283.99 54.9888" fill="#FDB9FF"/>
<path d="M6 216.338L46.1278 185.497L40.8986 286.093L6 216.338Z" fill="#42127C"/>
<path d="M46.1276 185.497L40.8984 286.093L69.5417 311.997L83.5052 305.163L46.1276 185.497Z" fill="#251170"/>
<path d="M46.1279 185.497L99.4448 233.433L79.6711 244.12L46.1279 185.497Z" fill="#230A57"/>
<path d="M99.4439 233.433L92.4722 302.898L83.5053 305.163L79.6709 244.119L99.4439 233.433Z" fill="#3E1791"/>
<path d="M46.1279 185.497L79.6711 244.12L83.5062 305.163L46.1279 185.497Z" fill="#59159C"/>
<path d="M6 287.081L121.522 379.005L76.0298 312.714L6 287.081Z" fill="#FFF5DF"/>
<path d="M76.0303 312.714L117.514 328.687L152.084 355.868L121.523 379.004L76.0303 312.714Z" fill="#C524BE"/>
<path d="M121.522 379.003L171.954 391.2L152.084 355.867L121.522 379.003Z" fill="#3D107B"/>
<path d="M291.427 355.867L170.694 398.673L164.962 389.535L291.427 355.867Z" fill="#F817CE"/>
<path d="M291.426 355.867L163.471 376.138L170.21 388.103L291.426 355.867Z" fill="#BD20BB"/>
<path d="M291.426 355.867L155.938 362.76L163.471 376.138L291.426 355.867Z" fill="#A331BA"/>
<path d="M291.426 355.867L155.937 362.76L152.083 355.867H291.426Z" fill="#501B88"/>
<path d="M155.221 348.608L216.362 351.512L154.388 350.951" fill="#300C65"/>
<path d="M154.389 350.951L106.165 311.263L155.221 348.609" fill="#AA9B85"/>
<path d="M170.694 398.673L241.112 393.678L288.929 364.057L291.427 355.867L170.694 398.673Z" fill="#520E8C"/>
<path d="M288.928 364.058L287.301 379.004L262.435 393.195L241.112 393.679L288.928 364.058Z" fill="#220B5B"/>
<path d="M287.301 379.003L291.426 355.867L309.805 369.536L287.301 379.003Z" fill="#10012D"/>
<path d="M291.427 355.868L330.373 333.72L300.684 362.76L291.427 355.868Z" fill="#59159C"/>
<path d="M300.685 362.761L330.373 333.72L354.311 312.714L357.797 319.316L309.806 369.537L300.685 362.761Z" fill="#370D6F"/>
<path d="M357.796 319.316L309.806 369.537L361.321 326.015L357.796 319.316Z" fill="#501590"/>
<path d="M404.897 230.413L356.48 298.813L354.311 312.714L404.897 230.413Z" fill="#BC1AC4"/>
<path d="M404.896 230.413L362.947 272.89L356.479 298.813L404.896 230.413Z" fill="#BD1CB7"/>
<path d="M326.383 258.796L297.662 332.113L344.355 302.628L326.383 258.796Z" fill="#4F158F"/>
<path d="M222.984 347.002L273.686 283.17L316.68 269.289L297.662 332.114L222.984 347.002Z" fill="#300C65"/>
<path d="M207.724 276.839L255.443 283.17L247.057 300.536L207.724 276.839Z" fill="#8F1DA9"/>
<path d="M188.648 156.457L106.165 176.65L107.017 212.137L188.648 156.457Z" fill="#DE4CD1"/>
<path d="M52.3047 176.649H106.164L107.016 212.138L52.3047 176.649Z" fill="#8A13A4"/>
<path d="M66.2488 115.974L105.312 114.271L52.3047 176.649L66.2488 115.974Z" fill="#F76ED0"/>
<path d="M105.312 114.271L150.088 93.0898L182.663 108.695L105.312 114.271Z" fill="#CB14C2"/>
<path d="M126.558 72.5098L185.704 97.3492L220.157 111.831L193.005 95.6652L126.558 72.5098Z" fill="#C722BF"/>
<path d="M46.1279 93.09L72.1956 86.1787L62.8995 114.271L46.1279 93.09Z" fill="#430F80"/>
<path d="M12.042 214.809L44.0552 190.977L42.5445 198.837L12.042 214.809Z" fill="#772AC0"/>
<path d="M344.356 302.627L330.373 333.72L354.31 312.714L344.356 302.627Z" fill="#BC1AC4"/>
<path d="M46.1279 174.287L56.1797 126.215L62.8995 117.038L46.1279 174.287Z" fill="#F217CA"/>
<path d="M71.3047 196.377L109.766 226.773L111.839 225.844L71.3047 196.377Z" fill="#9D159C"/>
<path d="M197.169 200.229L109.767 233.432H105.312L107.017 230.412L197.169 200.229Z" fill="#3C2FB3"/>
<path d="M1112.28 335.347V110.03H1241.03V142.218H1144.47V230.625H1241.03V302.554H1273.22V335.347H1241.03V302.554H1208.84V262.813H1144.47V335.347H1112.28ZM1241.03 230.625V142.218H1273.22V230.625H1241.03Z" fill="white"/>
<path d="M973.429 110.03C994.008 110.03 1012.54 114.968 1028.98 124.869C1045.61 134.555 1058.56 148.037 1067.81 165.284C1077.28 182.335 1082 201.573 1082 222.956C1082 244.344 1077.28 263.685 1067.81 280.941C1058.55 297.983 1045.6 311.461 1028.98 321.352L1028.97 321.354C1012.54 331.048 994.006 335.882 973.429 335.882C953.055 335.882 934.531 331.047 917.894 321.359L917.883 321.354L917.872 321.347C901.458 311.456 888.512 297.981 879.05 280.949L879.044 280.939L879.038 280.929C869.78 263.675 865.166 244.338 865.166 222.956C865.166 201.574 869.781 182.338 879.043 165.287L879.046 165.281C888.508 148.039 901.458 134.557 917.884 124.869C934.522 114.971 953.05 110.03 973.429 110.03ZM973.429 139.206C958.804 139.206 945.533 142.959 933.576 150.458L933.569 150.462C921.713 157.821 912.536 166.021 905.873 178.942C899.167 191.949 895.797 206.608 895.797 222.956C895.797 239.304 899.167 253.963 905.873 266.97C912.551 279.921 921.752 288.874 933.573 296.418C945.529 303.709 958.801 307.36 973.429 307.36C988.059 307.36 1001.33 303.708 1013.29 296.415C1025.32 288.869 1034.62 279.916 1041.3 266.97C1048 253.963 1051.37 239.304 1051.37 222.956C1051.37 206.608 1048 191.949 1041.3 178.942C1034.64 166.028 1025.36 157.829 1013.3 150.469L1013.29 150.464L1013.28 150.458C1001.32 142.959 988.053 139.206 973.429 139.206Z" fill="white"/>
<path d="M680.276 303.723V142.339H712.554V110.062H809.385V142.339H712.554V303.723H809.385V336H712.554V303.723H680.276ZM809.385 303.723V271.446H841.662V303.723H809.385ZM809.385 174.615V142.339H825.524H841.662V174.615H825.524H809.385Z" fill="white"/>
<path d="M567.704 110C582.204 110 595.204 112.731 606.66 118.243C618.322 123.548 627.592 131.211 634.416 141.232C641.237 151.251 645.16 162.846 646.218 175.964L646.389 178.08H616.458L616.279 176.319C615.09 164.621 610.165 155.402 601.511 148.518L601.491 148.503L601.473 148.487C593.02 141.411 581.827 137.785 567.704 137.785C553.495 137.785 542.473 140.73 534.439 146.408C526.707 152.018 522.859 159.682 522.859 169.612C522.859 177.021 525.081 182.907 529.415 187.444C534.161 191.984 539.911 195.559 546.698 198.155C553.84 200.807 563.681 203.782 576.249 207.079C591.995 211.016 604.796 214.967 614.623 218.939C624.646 222.991 633.078 229.288 639.896 237.808C647.074 246.514 650.564 258.05 650.564 272.209C650.564 285.384 647.051 296.853 639.964 306.522C633.104 316.163 623.385 323.502 610.907 328.577L610.899 328.58L610.892 328.584C598.638 333.443 584.748 335.851 569.254 335.851C552.892 335.851 538.431 332.808 525.925 326.661L525.907 326.652L525.89 326.643C513.611 320.292 503.842 311.485 496.624 300.233L496.612 300.216L496.601 300.197C489.593 288.73 485.69 275.494 484.848 260.541L484.731 258.472H514.624L514.791 260.246C516.2 275.136 521.603 286.741 530.894 295.244C540.371 303.731 553.088 308.065 569.254 308.065C584.721 308.065 596.799 305.01 605.67 299.098C614.571 293.097 619.059 284.237 619.059 272.209C619.059 264.586 616.73 258.604 612.193 254.067L612.179 254.053L612.164 254.037C607.639 249.315 601.797 245.536 594.581 242.729L594.563 242.722C587.431 239.869 577.489 236.688 564.707 233.184L564.701 233.183L564.696 233.181C549.16 228.83 536.673 224.672 527.268 220.701C517.679 216.653 509.471 210.575 502.663 202.49L502.647 202.471C495.682 193.981 492.284 182.968 492.284 169.612C492.284 157.882 495.384 147.464 501.62 138.433L501.638 138.407C508.072 129.399 517.054 122.472 528.493 117.599C540.138 112.519 553.22 110 567.704 110ZM495.288 293.801C496.209 295.636 497.204 297.427 498.272 299.176C505.298 310.128 514.804 318.703 526.789 324.902C527.148 325.079 527.51 325.252 527.872 325.423C527.51 325.252 527.15 325.079 526.792 324.903C514.807 318.704 505.301 310.129 498.275 299.177C496.993 297.078 495.816 294.917 494.745 292.694L495.288 293.801ZM585.759 237.444C589.345 238.643 592.522 239.796 595.291 240.903C602.73 243.796 608.826 247.722 613.579 252.682C618.538 257.641 621.018 264.15 621.019 272.209C621.019 284.814 616.265 294.32 606.76 300.726C597.461 306.925 584.959 310.024 569.254 310.024C568.751 310.024 568.252 310.02 567.755 310.012C568.252 310.02 568.753 310.025 569.257 310.025C584.962 310.025 597.464 306.926 606.763 300.727C616.268 294.321 621.02 284.815 621.021 272.21C621.021 264.151 618.541 257.642 613.582 252.683C608.829 247.723 602.733 243.796 595.294 240.903C592.525 239.796 589.346 238.643 585.759 237.444ZM492.109 286.533C492.31 287.065 492.515 287.593 492.727 288.118C492.515 287.593 492.31 287.065 492.109 286.533ZM491.549 284.996C491.593 285.12 491.637 285.244 491.682 285.368C491.637 285.244 491.593 285.12 491.549 284.996ZM491.242 284.11C491.316 284.328 491.391 284.545 491.467 284.762C491.391 284.545 491.316 284.328 491.242 284.11ZM490.938 283.196C491.022 283.453 491.107 283.708 491.193 283.963C491.107 283.708 491.022 283.453 490.938 283.196ZM490.488 281.769C490.544 281.952 490.601 282.135 490.658 282.318C490.601 282.135 490.544 281.952 490.488 281.769ZM490.252 280.98C490.31 281.176 490.368 281.371 490.427 281.566C490.368 281.371 490.309 281.176 490.252 280.98ZM489.988 280.064C488.258 273.913 487.197 267.369 486.807 260.432H512.841V260.431H486.804C486.841 261.087 486.884 261.74 486.933 262.39C487.401 268.603 488.421 274.495 489.988 280.064ZM567.704 111.959C553.446 111.959 540.634 114.439 529.269 119.398C518.11 124.151 509.432 130.867 503.232 139.546C497.24 148.225 494.243 158.247 494.243 169.612C494.243 182.63 497.55 193.17 504.162 201.229C510.775 209.081 518.731 214.969 528.029 218.896C529.192 219.387 530.404 219.881 531.664 220.379C530.405 219.882 529.194 219.387 528.032 218.896C518.733 214.97 510.778 209.081 504.165 201.229C497.553 193.17 494.246 182.631 494.246 169.612C494.246 158.247 497.242 148.225 503.234 139.546C509.434 130.867 518.113 124.151 529.271 119.398C540.637 114.439 553.449 111.96 567.707 111.96C568.671 111.96 569.629 111.972 570.579 111.996C569.628 111.971 568.669 111.959 567.704 111.959ZM588.903 139.154C594.087 140.998 598.697 143.607 602.73 146.984C611.823 154.217 616.989 163.929 618.229 176.121H618.231C616.991 163.93 611.825 154.218 602.733 146.985C598.699 143.608 594.088 140.998 588.903 139.154ZM491.824 285.764C491.907 285.991 491.991 286.217 492.076 286.443C491.991 286.217 491.907 285.991 491.824 285.764ZM490.756 282.629C490.816 282.818 490.877 283.008 490.938 283.196C490.877 283.008 490.816 282.818 490.756 282.629ZM489.988 280.064C490.042 280.257 490.098 280.449 490.153 280.641C490.098 280.449 490.042 280.257 489.988 280.064Z" fill="white"/>
<path d="M1302.23 110H1307.72L1314.66 127.119L1321.6 110H1327V133.71H1322.63V118.388L1316.46 133.71H1312.77L1306.69 118.388V133.71H1302.23V110ZM1286.72 114.194H1279.61V110H1298.46V114.194H1291.35V133.71H1286.72V114.194Z" fill="white"/>
</svg>
